<svg id="Layer_1" data-name="Layer 1" xmlns="http://www.w3.org/2000/svg" viewBox="0 0 624.32 188.25"><defs><style>.cls-1{fill:none;stroke:#000;stroke-miterlimit:10;}</style></defs><title>logo ikke</title><path d="M69.39,30.9a.68.68,0,0,1,.7-.7h20.6c12.5,0,21,6.3,21,17.71,0,8.2-5,13.9-12.7,16.2,8.9,1.7,14.9,7.3,14.9,17.3,0,11.2-9.2,18.8-22.3,18.8H70.09a.68.68,0,0,1-.7-.7Zm21.5,32.61c11.1,0,19-5.8,19-15.6,0-10.31-7.7-15.91-19.2-15.91H71.19V63.51Zm.7,34.9c12.2,0,20.5-6.8,20.5-17,0-11.1-8.1-16.1-19.3-16.1H71.19v33.1Z"/><path d="M152.29,28.5a.66.66,0,0,1,.5-.4h.2a.66.66,0,0,1,.5.4l30.2,71a.42.42,0,0,1-.3.6l-.9.3c-.3.1-.4-.1-.5-.3l-8.9-20.9h-40.9l-9,20.9c-.1.2-.2.4-.5.3l-.9-.3a.42.42,0,0,1-.3-.6Zm20,49L152.89,31.7,133,77.51Z"/><path d="M195.79,30.9a.68.68,0,0,1,.7-.7h20.6c12.5,0,21,6.3,21,17.71,0,8.2-5,13.9-12.7,16.2,8.9,1.7,14.9,7.3,14.9,17.3,0,11.2-9.2,18.8-22.3,18.8h-21.5a.68.68,0,0,1-.7-.7Zm21.5,32.61c11.1,0,19-5.8,19-15.6,0-10.31-7.7-15.91-19.2-15.91h-19.5V63.51Zm.7,34.9c12.2,0,20.5-6.8,20.5-17,0-11.1-8.1-16.1-19.3-16.1h-21.6v33.1Z"/><path d="M257.39,30.9a.68.68,0,0,1,.7-.7h.4a.68.68,0,0,1,.7.7V75c0,14.4,9.1,24.4,24,24.4s24.2-10,24.2-24.4V30.9a.68.68,0,0,1,.7-.7h.4a.68.68,0,0,1,.7.7V75c0,15.4-10,26.2-26,26.2s-25.8-10.8-25.8-26.2Z"/><path d="M326.69,92l.4-.4c.3-.3.6-.2.9.1a31,31,0,0,0,20,7.7c10.7,0,20.3-7.1,20.3-15.8,0-10.9-8.7-14.8-21.4-18.2-12.1-3.3-20.9-7.1-20.9-18.71,0-8.1,6.1-17.5,21.8-17.5a33,33,0,0,1,17.3,5.1.54.54,0,0,1,.2.8l-.4.6a.52.52,0,0,1-.8.2,31.63,31.63,0,0,0-16.3-4.9c-14.5,0-20,8.4-20,15.7,0,10.21,7.9,13.8,19.6,16.91,14,3.9,22.7,8.4,22.7,20,0,9.6-10.4,17.6-22.1,17.6a32.83,32.83,0,0,1-21.3-8.3A.56.56,0,0,1,326.69,92Z"/><path d="M386.29,30.9a.68.68,0,0,1,.7-.7h.4a.68.68,0,0,1,.7.7v32h49.2v-32a.68.68,0,0,1,.7-.7h.4a.68.68,0,0,1,.7.7V99.51a.68.68,0,0,1-.7.7H438a.68.68,0,0,1-.7-.7V64.71h-49.2v34.8a.68.68,0,0,1-.7.7H387a.68.68,0,0,1-.7-.7Z"/><path d="M461.49,30.9a.68.68,0,0,1,.7-.7h.4a.68.68,0,0,1,.7.7V64.21l37.2-33.91a.67.67,0,0,1,1,0l.3.3a.67.67,0,0,1,0,1l-36.9,33.51,37.9,34c.4.4.6.7.2,1.1l-.4.4c-.2.2-.5.2-.9-.2L463.29,66v33.5a.68.68,0,0,1-.7.7h-.4a.68.68,0,0,1-.7-.7Z"/><path d="M537.79,28.5a.66.66,0,0,1,.5-.4h.2a.66.66,0,0,1,.5.4l30.2,71a.42.42,0,0,1-.3.6l-.9.3c-.3.1-.4-.1-.5-.3l-8.9-20.9h-40.9l-9,20.9c-.1.2-.2.4-.5.3l-.9-.3a.42.42,0,0,1-.3-.6Zm20,49L538.39,31.7l-19.9,45.81Z"/><path d="M254.47,115.14a.4.4,0,0,1,.36-.42h.24a.41.41,0,0,1,.42.42v20.34a13.73,13.73,0,0,1,8.7-3.36c7,0,11.76,5.34,11.76,12.54s-5.16,12.66-11.46,12.66a11.64,11.64,0,0,1-9-3.9v2.88a.41.41,0,0,1-.42.42h-.24a.4.4,0,0,1-.36-.42Zm10,41.1c5.7,0,10.44-5.1,10.44-11.58s-4.32-11.46-10.74-11.46a12.5,12.5,0,0,0-8.7,3.66v14.88A10.48,10.48,0,0,0,264.49,156.24Z"/><path d="M283.33,119.1a1.22,1.22,0,0,1,1.2-1.26,1.26,1.26,0,0,1,1.2,1.26,1.2,1.2,0,0,1-1.2,1.2A1.17,1.17,0,0,1,283.33,119.1Zm.6,14a.41.41,0,0,1,.42-.42h.24a.41.41,0,0,1,.42.42V156.3a.41.41,0,0,1-.42.42h-.24a.41.41,0,0,1-.42-.42Z"/><path d="M293.35,154.2l.3-.42q.18-.27.54,0a11.28,11.28,0,0,0,7.26,2.46c4.32,0,7.56-2.4,7.56-5.52,0-3.42-3.6-4.68-8.1-5.94-5.34-1.5-7.92-3.12-7.92-6.48,0-2.7,2.46-6.18,8.1-6.18a12.74,12.74,0,0,1,6.84,1.92.32.32,0,0,1,.12.48l-.18.3c-.12.18-.24.3-.54.12a11.93,11.93,0,0,0-6.24-1.74c-4.92,0-7,2.88-7,5.1,0,2.82,2.4,4.14,7,5.46,4.8,1.38,9.06,2.58,9.06,7,0,3.72-3.9,6.6-8.76,6.6a12.28,12.28,0,0,1-7.92-2.7C293.35,154.5,293.29,154.38,293.35,154.2Z"/><path d="M318,133.8h-2.52a.4.4,0,0,1-.36-.42v-.24a.4.4,0,0,1,.36-.42H318v-6.48a.4.4,0,0,1,.36-.42h.24a.41.41,0,0,1,.42.42v6.48h9.78a.41.41,0,0,1,.42.42v.24a.41.41,0,0,1-.42.42H319v16.5c0,3.36.12,5.94,4.32,5.94a14.55,14.55,0,0,0,6.48-1.92c.24-.18.42-.06.48.12l.18.36a.37.37,0,0,1-.12.42,15.37,15.37,0,0,1-7,2.1c-5.22,0-5.34-3.06-5.34-7Z"/><path d="M336.49,133.14a.41.41,0,0,1,.42-.42h.24a.41.41,0,0,1,.42.42v3.18a9.75,9.75,0,0,1,7.8-4.2,8,8,0,0,1,4.44,1.08.39.39,0,0,1,.12.54l-.18.3a.42.42,0,0,1-.54.12,7.13,7.13,0,0,0-3.84-1c-4.8,0-7.38,4.2-7.8,4.92V156.3a.41.41,0,0,1-.42.42h-.24a.41.41,0,0,1-.42-.42Z"/><path d="M365.53,132.12a12.27,12.27,0,0,1,12.18,12.54c0,7.08-5.34,12.66-12.18,12.66s-12.18-5.58-12.18-12.66A12.27,12.27,0,0,1,365.53,132.12Zm0,24.12c6.24,0,11.1-5.1,11.1-11.58a11.11,11.11,0,1,0-22.2,0C354.43,151.14,359.29,156.24,365.53,156.24Z"/><line class="cls-1" x1="100.49" y1="140.34" x2="217.67" y2="140.34"/><line class="cls-1" x1="416.34" y1="140.34" x2="533.52" y2="140.34"/></svg>
