<svg id="Layer_1" data-name="Layer 1" xmlns="http://www.w3.org/2000/svg" viewBox="0 0 1422.35 169.09"><defs><style>.cls-1{fill:none;stroke:#000;stroke-miterlimit:10;}</style></defs><title>logo_2</title><path d="M408.68,18.7a.69.69,0,0,1,.7-.71H430c12.5,0,21,6.3,21,17.71,0,8.2-5,13.9-12.7,16.2,8.9,1.7,14.9,7.3,14.9,17.3,0,11.2-9.2,18.8-22.3,18.8h-21.5a.68.68,0,0,1-.7-.7Zm21.5,32.6c11.1,0,19-5.8,19-15.6,0-10.31-7.7-15.91-19.2-15.91h-19.5V51.3Zm.7,34.9c12.2,0,20.5-6.8,20.5-17,0-11.1-8.1-16.1-19.3-16.1h-21.6V86.2Z"/><path d="M466.18,25.29a2,2,0,0,1,2-2.09,2.09,2.09,0,0,1,2,2.09,2,2,0,0,1-2,2A1.94,1.94,0,0,1,466.18,25.29Zm1,23.41a.68.68,0,0,1,.7-.7h.4a.68.68,0,0,1,.7.7V87.3a.68.68,0,0,1-.7.7h-.4a.68.68,0,0,1-.7-.7Z"/><path d="M482.88,83.8l.5-.7q.3-.45.9,0a18.8,18.8,0,0,0,12.1,4.1c7.2,0,12.6-4,12.6-9.2,0-5.7-6-7.8-13.5-9.9-8.9-2.5-13.2-5.2-13.2-10.8,0-4.5,4.1-10.3,13.5-10.3a21.23,21.23,0,0,1,11.4,3.2.54.54,0,0,1,.2.8l-.3.5c-.2.3-.4.5-.9.2a19.88,19.88,0,0,0-10.4-2.9c-8.2,0-11.6,4.8-11.6,8.5,0,4.7,4,6.9,11.7,9.1,8,2.3,15.1,4.3,15.1,11.6,0,6.2-6.5,11-14.6,11a20.47,20.47,0,0,1-13.2-4.5C482.88,84.3,482.78,84.1,482.88,83.8Z"/><path d="M523.88,49.8h-4.2a.67.67,0,0,1-.6-.7v-.4a.67.67,0,0,1,.6-.7h4.2V37.2a.67.67,0,0,1,.6-.7h.4a.68.68,0,0,1,.7.7V48h16.3a.68.68,0,0,1,.7.7v.4a.68.68,0,0,1-.7.7h-16.3V77.3c0,5.6.2,9.9,7.2,9.9a24.25,24.25,0,0,0,10.8-3.2c.4-.3.7-.1.8.2l.3.6a.62.62,0,0,1-.2.7,25.62,25.62,0,0,1-11.7,3.5c-8.7,0-8.9-5.1-8.9-11.7Z"/><path d="M554.78,48.7a.68.68,0,0,1,.7-.7h.4a.68.68,0,0,1,.69.7V54c2-2.8,6.41-7,13-7,4.9,0,7.4,1.8,7.4,1.8a.65.65,0,0,1,.2.9l-.3.5a.69.69,0,0,1-.9.2,11.89,11.89,0,0,0-6.4-1.6c-8,0-12.3,7-13,8.2V87.3a.68.68,0,0,1-.69.7h-.4a.68.68,0,0,1-.7-.7Z"/><path d="M603.18,47c11.4,0,20.3,9.3,20.3,20.9,0,11.8-8.9,21.1-20.3,21.1s-20.3-9.3-20.3-21.1C582.88,56.3,591.78,47,603.18,47Zm0,40.2c10.4,0,18.5-8.5,18.5-19.3,0-10.6-8.1-19.1-18.5-19.1s-18.5,8.5-18.5,19.1C584.68,78.7,592.78,87.2,603.18,87.2Z"/><path d="M661.07,18.7a.69.69,0,0,1,.71-.71h20.6c12.5,0,21,6.3,21,17.71,0,8.2-5,13.9-12.7,16.2,8.9,1.7,14.9,7.3,14.9,17.3,0,11.2-9.2,18.8-22.3,18.8h-21.5a.69.69,0,0,1-.71-.7Zm21.51,32.6c11.1,0,19-5.8,19-15.6,0-10.31-7.7-15.91-19.2-15.91h-19.5V51.3Zm.7,34.9c12.2,0,20.5-6.8,20.5-17,0-11.1-8.1-16.1-19.3-16.1h-21.6V86.2Z"/><path d="M734.08,61.8a36.37,36.37,0,0,1,11.8,2.3V60.4c0-7.9-2.6-11.6-11.1-11.6a23.87,23.87,0,0,0-12.2,3c-.5.3-.7.1-.9-.2l-.3-.5c-.3-.5,0-.7.2-.8a25.61,25.61,0,0,1,13.2-3.3c9.8,0,12.9,4.3,12.9,13.4V87.3a.68.68,0,0,1-.7.7h-.4a.68.68,0,0,1-.7-.7V82.8c-3.1,2.7-8.9,6.2-15.5,6.2-7.8,0-13.91-5.1-13.91-13.5C716.47,67.6,723.48,61.8,734.08,61.8Zm-3.7,25.4c7.3,0,13.5-4.4,15.5-6.9V65.9c-1.4-.4-6.5-2.3-11.8-2.3-9.6,0-15.8,5-15.8,11.9C718.28,82.9,723.58,87.2,730.38,87.2Z"/><path d="M763.47,18.7a.67.67,0,0,1,.6-.71h.4a.69.69,0,0,1,.7.71V52.6A22.89,22.89,0,0,1,779.68,47c11.7,0,19.6,8.9,19.6,20.9,0,11.8-8.6,21.1-19.1,21.1a19.4,19.4,0,0,1-15-6.5v4.8a.68.68,0,0,1-.7.7h-.4a.67.67,0,0,1-.6-.7Zm16.71,68.5c9.5,0,17.4-8.5,17.4-19.3,0-11-7.2-19.1-17.9-19.1a20.84,20.84,0,0,0-14.51,6.1V79.7C765.57,80.4,770.07,87.2,780.18,87.2Z"/><path d="M812,48.7a.68.68,0,0,1,.7-.7h.4a.68.68,0,0,1,.7.7V70.6c0,10.9,5.2,16.6,14.8,16.6,9,0,14-7.3,14.61-8.2V48.7a.68.68,0,0,1,.7-.7h.4a.68.68,0,0,1,.7.7V87.3a.68.68,0,0,1-.7.7h-.4a.68.68,0,0,1-.7-.7V82a19,19,0,0,1-14.61,7c-10.8,0-16.6-6.3-16.6-18.4Z"/><path d="M858.87,83.8l.5-.7q.3-.45.9,0a18.8,18.8,0,0,0,12.1,4.1c7.2,0,12.6-4,12.6-9.2,0-5.7-6-7.8-13.5-9.9-8.9-2.5-13.2-5.2-13.2-10.8,0-4.5,4.1-10.3,13.5-10.3a21.23,21.23,0,0,1,11.4,3.2.54.54,0,0,1,.2.8l-.3.5c-.2.3-.4.5-.9.2a19.88,19.88,0,0,0-10.4-2.9c-8.2,0-11.6,4.8-11.6,8.5,0,4.7,4,6.9,11.7,9.1,8,2.3,15.1,4.3,15.1,11.6,0,6.2-6.5,11-14.6,11a20.47,20.47,0,0,1-13.2-4.5C858.87,84.3,858.77,84.1,858.87,83.8Z"/><path d="M899.27,18.7A.69.69,0,0,1,900,18h.4a.69.69,0,0,1,.7.71V54.5c2.5-2.7,7.8-7.5,15.6-7.5,10.8,0,16.6,6.5,16.6,18.6V87.3a.68.68,0,0,1-.7.7h-.4a.68.68,0,0,1-.7-.7V65.6c0-10.9-5.2-16.8-14.8-16.8-8.9,0-14.8,7.4-15.6,8.5v30a.68.68,0,0,1-.7.7H900a.68.68,0,0,1-.7-.7Z"/><path d="M948.87,18.7a.69.69,0,0,1,.7-.71h.4a.69.69,0,0,1,.7.71V64.9l26.1-17.4a.52.52,0,0,1,.8.1l.4.7a.54.54,0,0,1-.2.8l-25.2,16.7,26.8,21c.3.3.4.6.1.9l-.5.6a.43.43,0,0,1-.7.1l-27.6-21.8V87.3a.68.68,0,0,1-.7.7h-.4a.68.68,0,0,1-.7-.7Z"/><path d="M1003.57,61.8a36.37,36.37,0,0,1,11.8,2.3V60.4c0-7.9-2.6-11.6-11.1-11.6a23.87,23.87,0,0,0-12.2,3c-.5.3-.7.1-.9-.2l-.3-.5c-.3-.5,0-.7.2-.8a25.61,25.61,0,0,1,13.2-3.3c9.8,0,12.9,4.3,12.9,13.4V87.3a.68.68,0,0,1-.7.7h-.4a.68.68,0,0,1-.7-.7V82.8c-3.1,2.7-8.9,6.2-15.5,6.2-7.8,0-13.9-5.1-13.9-13.5C986,67.6,993,61.8,1003.57,61.8Zm-3.7,25.4c7.3,0,13.5-4.4,15.5-6.9V65.9c-1.4-.4-6.5-2.3-11.8-2.3-9.6,0-15.8,5-15.8,11.9C987.77,82.9,993.07,87.2,999.87,87.2Z"/><line class="cls-1" x1="475.61" y1="115.59" x2="947.11" y2="115.59"/></svg>
