<svg xmlns="http://www.w3.org/2000/svg" viewBox="0 0 1316.91 184.63"><defs><style>.cls-1{fill:none;stroke:#000;stroke-miterlimit:10;}</style></defs><title>logo kursiv</title><g id="Layer_2" data-name="Layer 2"><path d="M413.71,15.7a.68.68,0,0,1,.7-.7H435c12.5,0,21,6.29,21,17.7,0,8.2-5,13.9-12.7,16.2,8.9,1.7,14.9,7.3,14.9,17.3,0,11.2-9.2,18.8-22.3,18.8h-21.5a.68.68,0,0,1-.7-.7Zm21.5,32.6c11.1,0,19-5.8,19-15.6,0-10.3-7.7-15.91-19.2-15.91h-19.5V48.3Zm.7,34.9c12.2,0,20.5-6.8,20.5-17,0-11.1-8.1-16.1-19.3-16.1h-21.6V83.2Z"/><path d="M496.61,13.29a.66.66,0,0,1,.5-.4h.2a.66.66,0,0,1,.5.4l30.2,71a.42.42,0,0,1-.3.6l-.9.3c-.3.1-.4-.1-.5-.3L517.41,64h-40.9l-9,20.9c-.1.2-.2.4-.5.3l-.9-.3a.42.42,0,0,1-.3-.6Zm20,49-19.4-45.8-19.9,45.8Z"/><path d="M540.11,15.7a.68.68,0,0,1,.7-.7h20.6c12.5,0,21,6.29,21,17.7,0,8.2-5,13.9-12.7,16.2,8.9,1.7,14.9,7.3,14.9,17.3,0,11.2-9.2,18.8-22.3,18.8h-21.5a.68.68,0,0,1-.7-.7Zm21.5,32.6c11.1,0,19-5.8,19-15.6,0-10.3-7.7-15.91-19.2-15.91h-19.5V48.3Zm.7,34.9c12.2,0,20.5-6.8,20.5-17,0-11.1-8.1-16.1-19.3-16.1h-21.6V83.2Z"/><path d="M601.71,15.7a.68.68,0,0,1,.7-.7h.4a.68.68,0,0,1,.7.7V59.8c0,14.4,9.1,24.4,24,24.4s24.2-10,24.2-24.4V15.7a.68.68,0,0,1,.7-.7h.4a.68.68,0,0,1,.7.7V59.8c0,15.4-10,26.2-26,26.2s-25.8-10.8-25.8-26.2Z"/><path d="M671,76.8l.41-.4c.29-.3.6-.2.89.1a31,31,0,0,0,20,7.7c10.7,0,20.3-7.1,20.3-15.8,0-10.9-8.7-14.8-21.4-18.2-12.1-3.3-20.91-7.1-20.91-18.7,0-8.1,6.11-17.5,21.81-17.5a33,33,0,0,1,17.3,5.1.54.54,0,0,1,.2.8l-.4.6a.53.53,0,0,1-.8.2,31.59,31.59,0,0,0-16.3-4.91c-14.5,0-20,8.41-20,15.71,0,10.2,7.91,13.8,19.61,16.9,14,3.9,22.7,8.4,22.7,20,0,9.6-10.4,17.6-22.1,17.6A32.87,32.87,0,0,1,671,77.7.56.56,0,0,1,671,76.8Z"/><path d="M730.61,15.7a.68.68,0,0,1,.7-.7h.4a.68.68,0,0,1,.7.7v32h49.2v-32a.68.68,0,0,1,.7-.7h.4a.68.68,0,0,1,.7.7V84.3a.68.68,0,0,1-.7.7h-.4a.68.68,0,0,1-.7-.7V49.5h-49.2V84.3a.68.68,0,0,1-.7.7h-.4a.68.68,0,0,1-.7-.7Z"/><path d="M805.8,15.7a.68.68,0,0,1,.71-.7h.4a.68.68,0,0,1,.7.7V49l37.2-33.91a.67.67,0,0,1,1,0l.3.3a.68.68,0,0,1,0,1l-36.9,33.5,37.9,34c.4.4.6.7.2,1.1l-.4.4c-.2.2-.5.2-.9-.2l-38.4-34.4V84.3a.69.69,0,0,1-.7.7h-.4a.69.69,0,0,1-.71-.7Z"/><path d="M882.11,13.29a.66.66,0,0,1,.5-.4h.19a.66.66,0,0,1,.51.4l30.2,71a.42.42,0,0,1-.3.6l-.9.3c-.3.1-.4-.1-.5-.3L902.91,64H862l-9,20.9c-.1.2-.2.4-.5.3l-.9-.3a.42.42,0,0,1-.3-.6Zm20,49-19.4-45.8L862.8,62.3Z"/><path d="M606.32,99.93a.51.51,0,0,1,.42-.42h.3a.34.34,0,0,1,.36.42l-2.88,20.16a12.79,12.79,0,0,1,8-3.18c5.64,0,9.24,4.68,9.24,10.74,0,8.1-5.76,14.46-12.06,14.46a8.78,8.78,0,0,1-7.68-3.9l-.42,2.88a.51.51,0,0,1-.48.42h-.3a.33.33,0,0,1-.3-.42Zm3.36,41.1c5.82,0,11-5.94,11-13.38,0-5.52-3.24-9.66-8.16-9.66a11.69,11.69,0,0,0-8.16,3.66l-2.1,14.88A8,8,0,0,0,609.68,141Z"/><path d="M631.22,117.93a.51.51,0,0,1,.48-.42h.24a.34.34,0,0,1,.36.42L629,141.09c-.06.24-.18.42-.42.42h-.3a.3.3,0,0,1-.3-.42Zm1.38-13.86a1.4,1.4,0,0,1,1.32-1.44,1,1,0,0,1,1,1.08,1.34,1.34,0,0,1-1.26,1.38A1,1,0,0,1,632.6,104.07Z"/><path d="M637.76,139l.36-.42a.34.34,0,0,1,.54,0,8,8,0,0,0,6.12,2.46c4.08,0,7.5-2.34,7.5-5.82,0-2.94-2.88-4.26-6.54-5.64-4-1.5-6.18-3.24-6.18-6.36,0-2.7,2.76-6.3,8-6.3a9.49,9.49,0,0,1,6.06,1.92.31.31,0,0,1,.06.48l-.18.3a.34.34,0,0,1-.54.12,8.73,8.73,0,0,0-5.4-1.74c-4.68,0-6.9,2.94-6.9,5.22,0,2.58,2,4,5.52,5.34,3.72,1.44,7.2,2.76,7.2,6.66s-4.14,6.9-8.64,6.9a9.35,9.35,0,0,1-7-2.7A.29.29,0,0,1,637.76,139Z"/><path d="M663.56,118.59h-2.34c-.18,0-.3-.18-.24-.42l.06-.24c.06-.24.18-.42.36-.42h2.28l.9-6.48a.51.51,0,0,1,.42-.42h.24a.34.34,0,0,1,.36.42l-.9,6.48h8.7a.34.34,0,0,1,.36.42l-.06.24a.51.51,0,0,1-.42.42h-8.76l-2.28,16.5c-.48,3.36-.72,5.94,2.82,5.94a13,13,0,0,0,6.06-1.92c.24-.18.36-.12.48.06l.24.42c.06.18,0,.3-.18.42a14.59,14.59,0,0,1-6.6,2.1c-4.74,0-4.38-3.06-3.84-7Z"/><path d="M680.9,117.93a.51.51,0,0,1,.42-.42h.3a.33.33,0,0,1,.3.42l-.42,3.18c1.26-1.68,4-4.2,7.56-4.2,2.64,0,3.6.9,3.84,1.08a.39.39,0,0,1,.06.54l-.18.24a.37.37,0,0,1-.54.12,5.34,5.34,0,0,0-3.18-1c-4.44,0-7.32,4.26-7.8,5l-2.58,18.18c-.06.24-.18.42-.42.42H678a.3.3,0,0,1-.3-.42Z"/><path d="M708.08,116.91c5.52,0,9.3,4.86,9.3,10.8,0,8-6.06,14.4-12.84,14.4-5.58,0-9.36-4.8-9.36-10.86C695.18,123.33,701.3,116.91,708.08,116.91ZM704.54,141c6.3,0,11.76-6,11.76-13.32,0-5.46-3.42-9.72-8.22-9.72-6.3,0-11.82,6-11.82,13.26C696.26,136.77,699.68,141,704.54,141Z"/><line class="cls-1" x1="444.81" y1="125.14" x2="561.99" y2="125.14"/><line class="cls-1" x1="760.66" y1="125.14" x2="877.83" y2="125.14"/></g></svg>
